<?xml version="1.0" encoding="UTF-8" standalone="no"?>
<!DOCTYPE svg PUBLIC "-//W3C//DTD SVG 1.1//EN"
 "http://www.w3.org/Graphics/SVG/1.1/DTD/svg11.dtd">
<!-- Generated by graphviz version 9.0.0 (20230911.1827)
 -->
<!-- Title: compactRelationshipsDiagram Pages: 1 -->
<svg width="553pt" height="421pt"
 viewBox="0.00 0.00 553.00 421.00" xmlns="http://www.w3.org/2000/svg" xmlns:xlink="http://www.w3.org/1999/xlink">
<g id="graph0" class="graph" transform="scale(1 1) rotate(0) translate(4 417)">
<title>compactRelationshipsDiagram</title>
<polygon fill="#ffffff" stroke="none" points="-4,4 -4,-417 549,-417 549,4 -4,4"/>
<text text-anchor="middle" x="71.38" y="-5.55" font-family="Helvetica,sans-Serif" font-size="11.00">Generated by SchemaSpy</text>
<!-- work_orders_to_starships -->
<g id="node1" class="node">
<title>work_orders_to_starships</title>
<g id="a_node1"><a xlink:href="../../tables/work_orders_to_starships.html" xlink:title="work_orders_to_starships" target="_top">
<polygon fill="#ffffff" stroke="none" points="348,-119 348,-225 537,-225 537,-119 348,-119"/>
<polygon fill="#f5f5f5" stroke="none" points="348,-203 348,-225 537,-225 537,-203 348,-203"/>
<polygon fill="none" stroke="black" points="348,-203 348,-225 537,-225 537,-203 348,-203"/>
<text text-anchor="start" x="353" y="-210.55" font-family="Helvetica,sans-Serif" font-weight="bold" font-size="11.00">work_orders_to_starships</text>
<text text-anchor="start" x="503" y="-209.55" font-family="Helvetica,sans-Serif" font-size="11.00">[table]</text>
<polygon fill="none" stroke="black" points="348,-181 348,-203 537,-203 537,-181 348,-181"/>
<image xlink:href="../../images/primaryKeys.png" width="11px" height="12px" preserveAspectRatio="xMinYMin meet" x="353" y="-198"/>
<text text-anchor="start" x="377" y="-187.55" font-family="Helvetica,sans-Serif" font-size="11.00">id</text>
<polygon fill="none" stroke="black" points="348,-159 348,-181 537,-181 537,-159 348,-159"/>
<image xlink:href="../../images/foreignKeys.png" width="11px" height="12px" preserveAspectRatio="xMinYMin meet" x="353" y="-176"/>
<text text-anchor="start" x="377" y="-165.55" font-family="Helvetica,sans-Serif" font-size="11.00">work_order_id</text>
<polygon fill="none" stroke="black" points="348,-137 348,-159 537,-159 537,-137 348,-137"/>
<image xlink:href="../../images/foreignKeys.png" width="11px" height="12px" preserveAspectRatio="xMinYMin meet" x="353" y="-154"/>
<text text-anchor="start" x="377" y="-143.55" font-family="Helvetica,sans-Serif" font-size="11.00">starship_id</text>
<polygon fill="#ffffff" stroke="none" points="348,-119 348,-137 441,-137 441,-119 348,-119"/>
<polygon fill="none" stroke="black" points="348,-119 348,-137 441,-137 441,-119 348,-119"/>
<text text-anchor="start" x="351" y="-123.55" font-family="Helvetica,sans-Serif" font-size="11.00">&lt; 2</text>
<polygon fill="#ffffff" stroke="none" points="441,-119 441,-137 489,-137 489,-119 441,-119"/>
<polygon fill="none" stroke="black" points="441,-119 441,-137 489,-137 489,-119 441,-119"/>
<text text-anchor="start" x="480" y="-123.55" font-family="Helvetica,sans-Serif" font-size="11.00"> &#160;</text>
<polygon fill="#ffffff" stroke="none" points="489,-119 489,-137 537,-137 537,-119 489,-119"/>
<polygon fill="none" stroke="black" points="489,-119 489,-137 537,-137 537,-119 489,-119"/>
<text text-anchor="start" x="528" y="-123.55" font-family="Helvetica,sans-Serif" font-size="11.00"> &#160;</text>
</a>
</g>
</g>
<!-- work_orders -->
<g id="node4" class="node">
<title>work_orders</title>
<g id="a_node4"><a xlink:href="../../tables/work_orders.html" xlink:title="work_orders" target="_top">
<polygon fill="#ffffff" stroke="none" points="170,-182 170,-262 281,-262 281,-182 170,-182"/>
<polygon fill="#f5f5f5" stroke="none" points="170,-240 170,-262 281,-262 281,-240 170,-240"/>
<polygon fill="none" stroke="black" points="170,-240 170,-262 281,-262 281,-240 170,-240"/>
<text text-anchor="start" x="175" y="-247.55" font-family="Helvetica,sans-Serif" font-weight="bold" font-size="11.00">work_orders</text>
<text text-anchor="start" x="247" y="-246.55" font-family="Helvetica,sans-Serif" font-size="11.00">[table]</text>
<polygon fill="none" stroke="black" points="170,-218 170,-240 281,-240 281,-218 170,-218"/>
<image xlink:href="../../images/primaryKeys.png" width="11px" height="12px" preserveAspectRatio="xMinYMin meet" x="175" y="-235"/>
<text text-anchor="start" x="199" y="-224.55" font-family="Helvetica,sans-Serif" font-size="11.00">id</text>
<polygon fill="none" stroke="black" points="170,-200 170,-218 281,-218 281,-200 170,-200"/>
<text text-anchor="start" x="173" y="-204.55" font-family="Helvetica,sans-Serif" font-size="11.00">...</text>
<polygon fill="#ffffff" stroke="none" points="170,-182 170,-200 215,-200 215,-182 170,-182"/>
<polygon fill="none" stroke="black" points="170,-182 170,-200 215,-200 215,-182 170,-182"/>
<text text-anchor="start" x="173" y="-186.55" font-family="Helvetica,sans-Serif" font-size="11.00"> &#160;</text>
<polygon fill="#ffffff" stroke="none" points="215,-182 215,-200 243,-200 243,-182 215,-182"/>
<polygon fill="none" stroke="black" points="215,-182 215,-200 243,-200 243,-182 215,-182"/>
<text text-anchor="start" x="234" y="-186.55" font-family="Helvetica,sans-Serif" font-size="11.00"> &#160;</text>
<polygon fill="#ffffff" stroke="none" points="243,-182 243,-200 281,-200 281,-182 243,-182"/>
<polygon fill="none" stroke="black" points="243,-182 243,-200 281,-200 281,-182 243,-182"/>
<text text-anchor="start" x="262.25" y="-186.55" font-family="Helvetica,sans-Serif" font-size="11.00">2 &gt;</text>
</a>
</g>
</g>
<!-- work_orders_to_starships&#45;&gt;work_orders -->
<g id="edge6" class="edge">
<title>work_orders_to_starships:w&#45;&gt;work_orders:e</title>
<path fill="none" stroke="black" d="M331.49,-174.06C310.76,-187.39 314.99,-229 282.5,-229"/>
<polygon fill="black" stroke="black" points="338.45,-172.17 347.12,-173.56 342.64,-171.04 345.85,-170.17 345.85,-170.17 345.85,-170.17 342.64,-171.04 345.24,-166.61 338.45,-172.17"/>
<ellipse fill="none" stroke="black" cx="333.71" cy="-173.46" rx="3.2" ry="3.2"/>
</g>
<!-- starships -->
<g id="node6" class="node">
<title>starships</title>
<g id="a_node6"><a xlink:href="../../tables/starships.html" xlink:title="starships" target="_top">
<polygon fill="#ffffff" stroke="none" points="179.5,-37 179.5,-161 271.5,-161 271.5,-37 179.5,-37"/>
<polygon fill="#f5f5f5" stroke="none" points="179.5,-139 179.5,-161 271.5,-161 271.5,-139 179.5,-139"/>
<polygon fill="none" stroke="black" points="179.5,-139 179.5,-161 271.5,-161 271.5,-139 179.5,-139"/>
<text text-anchor="start" x="184.5" y="-146.55" font-family="Helvetica,sans-Serif" font-weight="bold" font-size="11.00">starships</text>
<text text-anchor="start" x="237.5" y="-145.55" font-family="Helvetica,sans-Serif" font-size="11.00">[table]</text>
<polygon fill="none" stroke="black" points="179.5,-117 179.5,-139 271.5,-139 271.5,-117 179.5,-117"/>
<image xlink:href="../../images/primaryKeys.png" width="11px" height="12px" preserveAspectRatio="xMinYMin meet" x="184.5" y="-134"/>
<text text-anchor="start" x="201.5" y="-123.55" font-family="Helvetica,sans-Serif" font-size="11.00">id</text>
<polygon fill="#ffffff" stroke="none" points="179.5,-95 179.5,-117 271.5,-117 271.5,-95 179.5,-95"/>
<polygon fill="none" stroke="black" points="179.5,-95 179.5,-117 271.5,-117 271.5,-95 179.5,-95"/>
<text text-anchor="start" x="201.5" y="-101.55" font-family="Helvetica,sans-Serif" font-size="11.00">name</text>
<polygon fill="none" stroke="black" points="179.5,-73 179.5,-95 271.5,-95 271.5,-73 179.5,-73"/>
<image xlink:href="../../images/foreignKeys.png" width="11px" height="12px" preserveAspectRatio="xMinYMin meet" x="184.5" y="-90"/>
<text text-anchor="start" x="201.5" y="-79.55" font-family="Helvetica,sans-Serif" font-size="11.00">shipyard_id</text>
<polygon fill="none" stroke="black" points="179.5,-55 179.5,-73 271.5,-73 271.5,-55 179.5,-55"/>
<text text-anchor="start" x="182.5" y="-59.55" font-family="Helvetica,sans-Serif" font-size="11.00">...</text>
<polygon fill="#ffffff" stroke="none" points="179.5,-37 179.5,-55 219.5,-55 219.5,-37 179.5,-37"/>
<polygon fill="none" stroke="black" points="179.5,-37 179.5,-55 219.5,-55 219.5,-37 179.5,-37"/>
<text text-anchor="start" x="182.5" y="-41.55" font-family="Helvetica,sans-Serif" font-size="11.00">&lt; 1</text>
<polygon fill="#ffffff" stroke="none" points="219.5,-37 219.5,-55 240.5,-55 240.5,-37 219.5,-37"/>
<polygon fill="none" stroke="black" points="219.5,-37 219.5,-55 240.5,-55 240.5,-37 219.5,-37"/>
<text text-anchor="start" x="231.5" y="-41.55" font-family="Helvetica,sans-Serif" font-size="11.00"> &#160;</text>
<polygon fill="#ffffff" stroke="none" points="240.5,-37 240.5,-55 271.5,-55 271.5,-37 240.5,-37"/>
<polygon fill="none" stroke="black" points="240.5,-37 240.5,-55 271.5,-55 271.5,-37 240.5,-37"/>
<text text-anchor="start" x="252.75" y="-41.55" font-family="Helvetica,sans-Serif" font-size="11.00">1 &gt;</text>
</a>
</g>
</g>
<!-- work_orders_to_starships&#45;&gt;starships -->
<g id="edge5" class="edge">
<title>work_orders_to_starships:w&#45;&gt;starships:e</title>
<path fill="none" stroke="black" d="M330.84,-146.36C309.5,-141.59 300.58,-128 272.5,-128"/>
<polygon fill="black" stroke="black" points="338.21,-147.13 345.79,-151.55 342.52,-147.58 345.83,-147.93 345.83,-147.93 345.83,-147.93 342.52,-147.58 346.54,-144.38 338.21,-147.13"/>
<ellipse fill="none" stroke="black" cx="333.32" cy="-146.62" rx="3.2" ry="3.2"/>
</g>
<!-- employees -->
<g id="node2" class="node">
<title>employees</title>
<g id="a_node2"><a xlink:href="../../tables/employees.html" xlink:title="employees" target="_top">
<polygon fill="#ffffff" stroke="none" points="152,-283 152,-407 299,-407 299,-283 152,-283"/>
<polygon fill="#f5f5f5" stroke="none" points="152,-385 152,-407 299,-407 299,-385 152,-385"/>
<polygon fill="none" stroke="black" points="152,-385 152,-407 299,-407 299,-385 152,-385"/>
<text text-anchor="start" x="157" y="-392.55" font-family="Helvetica,sans-Serif" font-weight="bold" font-size="11.00">employees</text>
<text text-anchor="start" x="264.75" y="-391.55" font-family="Helvetica,sans-Serif" font-size="11.00">[table]</text>
<polygon fill="none" stroke="black" points="152,-363 152,-385 299,-385 299,-363 152,-363"/>
<image xlink:href="../../images/primaryKeys.png" width="11px" height="12px" preserveAspectRatio="xMinYMin meet" x="157" y="-380"/>
<text text-anchor="start" x="172" y="-369.55" font-family="Helvetica,sans-Serif" font-size="11.00">id</text>
<polygon fill="#ffffff" stroke="none" points="152,-341 152,-363 299,-363 299,-341 152,-341"/>
<polygon fill="none" stroke="black" points="152,-341 152,-363 299,-363 299,-341 152,-341"/>
<text text-anchor="start" x="172" y="-347.55" font-family="Helvetica,sans-Serif" font-size="11.00">name</text>
<polygon fill="none" stroke="black" points="152,-319 152,-341 299,-341 299,-319 152,-319"/>
<image xlink:href="../../images/foreignKeys.png" width="11px" height="12px" preserveAspectRatio="xMinYMin meet" x="157" y="-336"/>
<text text-anchor="start" x="172" y="-325.55" font-family="Helvetica,sans-Serif" font-size="11.00">assigned_shipyard_id</text>
<polygon fill="none" stroke="black" points="152,-301 152,-319 299,-319 299,-301 152,-301"/>
<text text-anchor="start" x="155" y="-305.55" font-family="Helvetica,sans-Serif" font-size="11.00">...</text>
<polygon fill="#ffffff" stroke="none" points="152,-283 152,-301 219,-301 219,-283 152,-283"/>
<polygon fill="none" stroke="black" points="152,-283 152,-301 219,-301 219,-283 152,-283"/>
<text text-anchor="start" x="155" y="-287.55" font-family="Helvetica,sans-Serif" font-size="11.00">&lt; 1</text>
<polygon fill="#ffffff" stroke="none" points="219,-283 219,-301 254,-301 254,-283 219,-283"/>
<polygon fill="none" stroke="black" points="219,-283 219,-301 254,-301 254,-283 219,-283"/>
<text text-anchor="start" x="245" y="-287.55" font-family="Helvetica,sans-Serif" font-size="11.00"> &#160;</text>
<polygon fill="#ffffff" stroke="none" points="254,-283 254,-301 299,-301 299,-283 254,-283"/>
<polygon fill="none" stroke="black" points="254,-283 254,-301 299,-301 299,-283 254,-283"/>
<text text-anchor="start" x="280.25" y="-287.55" font-family="Helvetica,sans-Serif" font-size="11.00">1 &gt;</text>
</a>
</g>
</g>
<!-- shipyards -->
<g id="node3" class="node">
<title>shipyards</title>
<g id="a_node3"><a xlink:href="../../tables/shipyards.html" xlink:title="shipyards" target="_top">
<polygon fill="#ffffff" stroke="none" points="8,-138 8,-240 103,-240 103,-138 8,-138"/>
<polygon fill="#f5f5f5" stroke="none" points="8,-218 8,-240 103,-240 103,-218 8,-218"/>
<polygon fill="none" stroke="black" points="8,-218 8,-240 103,-240 103,-218 8,-218"/>
<text text-anchor="start" x="13" y="-225.55" font-family="Helvetica,sans-Serif" font-weight="bold" font-size="11.00">shipyards</text>
<text text-anchor="start" x="69" y="-224.55" font-family="Helvetica,sans-Serif" font-size="11.00">[table]</text>
<polygon fill="none" stroke="black" points="8,-196 8,-218 103,-218 103,-196 8,-196"/>
<image xlink:href="../../images/primaryKeys.png" width="11px" height="12px" preserveAspectRatio="xMinYMin meet" x="13" y="-213"/>
<text text-anchor="start" x="33" y="-202.55" font-family="Helvetica,sans-Serif" font-size="11.00">id</text>
<polygon fill="#ffffff" stroke="none" points="8,-174 8,-196 103,-196 103,-174 8,-174"/>
<polygon fill="none" stroke="black" points="8,-174 8,-196 103,-196 103,-174 8,-174"/>
<text text-anchor="start" x="33" y="-180.55" font-family="Helvetica,sans-Serif" font-size="11.00">name</text>
<polygon fill="none" stroke="black" points="8,-156 8,-174 103,-174 103,-156 8,-156"/>
<text text-anchor="start" x="11" y="-160.55" font-family="Helvetica,sans-Serif" font-size="11.00">...</text>
<polygon fill="#ffffff" stroke="none" points="8,-138 8,-156 45,-156 45,-138 8,-138"/>
<polygon fill="none" stroke="black" points="8,-138 8,-156 45,-156 45,-138 8,-138"/>
<text text-anchor="start" x="11" y="-142.55" font-family="Helvetica,sans-Serif" font-size="11.00"> &#160;</text>
<polygon fill="#ffffff" stroke="none" points="45,-138 45,-156 69,-156 69,-138 45,-138"/>
<polygon fill="none" stroke="black" points="45,-138 45,-156 69,-156 69,-138 45,-138"/>
<text text-anchor="start" x="60" y="-142.55" font-family="Helvetica,sans-Serif" font-size="11.00"> &#160;</text>
<polygon fill="#ffffff" stroke="none" points="69,-138 69,-156 103,-156 103,-138 69,-138"/>
<polygon fill="none" stroke="black" points="69,-138 69,-156 103,-156 103,-138 69,-138"/>
<text text-anchor="start" x="84.25" y="-142.55" font-family="Helvetica,sans-Serif" font-size="11.00">2 &gt;</text>
</a>
</g>
</g>
<!-- employees&#45;&gt;shipyards -->
<g id="edge1" class="edge">
<title>employees:w&#45;&gt;shipyards:e</title>
<path fill="none" stroke="black" d="M135.64,-325.91C106.06,-304.57 156.48,-207 104.5,-207"/>
<polygon fill="black" stroke="black" points="142.46,-327.79 149.22,-333.38 146.64,-328.94 149.86,-329.82 149.86,-329.82 149.86,-329.82 146.64,-328.94 151.13,-326.44 142.46,-327.79"/>
<ellipse fill="none" stroke="black" cx="137.72" cy="-326.48" rx="3.2" ry="3.2"/>
</g>
<!-- work_order_assignments -->
<g id="node5" class="node">
<title>work_order_assignments</title>
<g id="a_node5"><a xlink:href="../../tables/work_order_assignments.html" xlink:title="work_order_assignments" target="_top">
<polygon fill="#ffffff" stroke="none" points="350.5,-285 350.5,-409 534.5,-409 534.5,-285 350.5,-285"/>
<polygon fill="#f5f5f5" stroke="none" points="350.5,-387 350.5,-409 534.5,-409 534.5,-387 350.5,-387"/>
<polygon fill="none" stroke="black" points="350.5,-387 350.5,-409 534.5,-409 534.5,-387 350.5,-387"/>
<text text-anchor="start" x="355.5" y="-394.55" font-family="Helvetica,sans-Serif" font-weight="bold" font-size="11.00">work_order_assignments</text>
<text text-anchor="start" x="500.5" y="-393.55" font-family="Helvetica,sans-Serif" font-size="11.00">[table]</text>
<polygon fill="none" stroke="black" points="350.5,-365 350.5,-387 534.5,-387 534.5,-365 350.5,-365"/>
<image xlink:href="../../images/primaryKeys.png" width="11px" height="12px" preserveAspectRatio="xMinYMin meet" x="355.5" y="-382"/>
<text text-anchor="start" x="379.5" y="-371.55" font-family="Helvetica,sans-Serif" font-size="11.00">id</text>
<polygon fill="none" stroke="black" points="350.5,-343 350.5,-365 534.5,-365 534.5,-343 350.5,-343"/>
<image xlink:href="../../images/foreignKeys.png" width="11px" height="12px" preserveAspectRatio="xMinYMin meet" x="355.5" y="-360"/>
<text text-anchor="start" x="379.5" y="-349.55" font-family="Helvetica,sans-Serif" font-size="11.00">assigned_employee_id</text>
<polygon fill="none" stroke="black" points="350.5,-321 350.5,-343 534.5,-343 534.5,-321 350.5,-321"/>
<image xlink:href="../../images/foreignKeys.png" width="11px" height="12px" preserveAspectRatio="xMinYMin meet" x="355.5" y="-338"/>
<text text-anchor="start" x="379.5" y="-327.55" font-family="Helvetica,sans-Serif" font-size="11.00">work_order_id</text>
<polygon fill="none" stroke="black" points="350.5,-303 350.5,-321 534.5,-321 534.5,-303 350.5,-303"/>
<text text-anchor="start" x="353.5" y="-307.55" font-family="Helvetica,sans-Serif" font-size="11.00">...</text>
<polygon fill="#ffffff" stroke="none" points="350.5,-285 350.5,-303 440.5,-303 440.5,-285 350.5,-285"/>
<polygon fill="none" stroke="black" points="350.5,-285 350.5,-303 440.5,-303 440.5,-285 350.5,-285"/>
<text text-anchor="start" x="353.5" y="-289.55" font-family="Helvetica,sans-Serif" font-size="11.00">&lt; 2</text>
<polygon fill="#ffffff" stroke="none" points="440.5,-285 440.5,-303 487.5,-303 487.5,-285 440.5,-285"/>
<polygon fill="none" stroke="black" points="440.5,-285 440.5,-303 487.5,-303 487.5,-285 440.5,-285"/>
<text text-anchor="start" x="478.5" y="-289.55" font-family="Helvetica,sans-Serif" font-size="11.00"> &#160;</text>
<polygon fill="#ffffff" stroke="none" points="487.5,-285 487.5,-303 534.5,-303 534.5,-285 487.5,-285"/>
<polygon fill="none" stroke="black" points="487.5,-285 487.5,-303 534.5,-303 534.5,-285 487.5,-285"/>
<text text-anchor="start" x="525.5" y="-289.55" font-family="Helvetica,sans-Serif" font-size="11.00"> &#160;</text>
</a>
</g>
</g>
<!-- work_order_assignments&#45;&gt;employees -->
<g id="edge3" class="edge">
<title>work_order_assignments:w&#45;&gt;employees:e</title>
<path fill="none" stroke="black" d="M334.16,-357.67C323.3,-363.44 317.59,-374 300.5,-374"/>
<polygon fill="black" stroke="black" points="341.39,-355.94 350.01,-357.58 345.61,-354.93 348.85,-354.16 348.85,-354.16 348.85,-354.16 345.61,-354.93 348.34,-350.58 341.39,-355.94"/>
<ellipse fill="none" stroke="black" cx="336.61" cy="-357.08" rx="3.2" ry="3.2"/>
</g>
<!-- work_order_assignments&#45;&gt;work_orders -->
<g id="edge4" class="edge">
<title>work_order_assignments:w&#45;&gt;work_orders:e</title>
<path fill="none" stroke="black" d="M334.39,-328.33C303.21,-309.99 330.92,-229 282.5,-229"/>
<polygon fill="black" stroke="black" points="341.4,-330.04 348.33,-335.42 345.61,-331.06 348.85,-331.84 348.85,-331.84 348.85,-331.84 345.61,-331.06 350.02,-328.42 341.4,-330.04"/>
<ellipse fill="none" stroke="black" cx="336.62" cy="-328.88" rx="3.2" ry="3.2"/>
</g>
<!-- starships&#45;&gt;shipyards -->
<g id="edge2" class="edge">
<title>starships:w&#45;&gt;shipyards:e</title>
<path fill="none" stroke="black" d="M163.2,-87.16C123.89,-106.42 162.19,-207 104.5,-207"/>
<polygon fill="black" stroke="black" points="170.34,-85.69 178.9,-87.59 174.58,-84.81 177.84,-84.14 177.84,-84.14 177.84,-84.14 174.58,-84.81 177.44,-80.54 170.34,-85.69"/>
<ellipse fill="none" stroke="black" cx="165.52" cy="-86.68" rx="3.2" ry="3.2"/>
</g>
</g>
</svg>
