<?xml version="1.0" encoding="UTF-8" standalone="no"?>
<!DOCTYPE svg PUBLIC "-//W3C//DTD SVG 1.1//EN"
 "http://www.w3.org/Graphics/SVG/1.1/DTD/svg11.dtd">
<!-- Generated by graphviz version 9.0.0 (20230911.1827)
 -->
<!-- Title: largeRelationshipsDiagram Pages: 1 -->
<svg width="553pt" height="607pt"
 viewBox="0.00 0.00 553.00 607.00" xmlns="http://www.w3.org/2000/svg" xmlns:xlink="http://www.w3.org/1999/xlink">
<g id="graph0" class="graph" transform="scale(1 1) rotate(0) translate(4 603)">
<title>largeRelationshipsDiagram</title>
<polygon fill="#ffffff" stroke="none" points="-4,4 -4,-603 549,-603 549,4 -4,4"/>
<text text-anchor="middle" x="71.38" y="-5.55" font-family="Helvetica,sans-Serif" font-size="11.00">Generated by SchemaSpy</text>
<!-- work_orders_to_starships -->
<g id="node1" class="node">
<title>work_orders_to_starships</title>
<g id="a_node1"><a xlink:href="../../tables/work_orders_to_starships.html" xlink:title="work_orders_to_starships" target="_top">
<polygon fill="#ffffff" stroke="none" points="348,-200 348,-306 537,-306 537,-200 348,-200"/>
<polygon fill="#f5f5f5" stroke="none" points="348,-284 348,-306 537,-306 537,-284 348,-284"/>
<polygon fill="none" stroke="black" points="348,-284 348,-306 537,-306 537,-284 348,-284"/>
<text text-anchor="start" x="353" y="-291.55" font-family="Helvetica,sans-Serif" font-weight="bold" font-size="11.00">work_orders_to_starships</text>
<text text-anchor="start" x="503" y="-290.55" font-family="Helvetica,sans-Serif" font-size="11.00">[table]</text>
<polygon fill="none" stroke="black" points="348,-262 348,-284 537,-284 537,-262 348,-262"/>
<image xlink:href="../../images/primaryKeys.png" width="11px" height="12px" preserveAspectRatio="xMinYMin meet" x="353" y="-279"/>
<text text-anchor="start" x="377" y="-268.55" font-family="Helvetica,sans-Serif" font-size="11.00">id</text>
<polygon fill="none" stroke="black" points="348,-240 348,-262 537,-262 537,-240 348,-240"/>
<image xlink:href="../../images/foreignKeys.png" width="11px" height="12px" preserveAspectRatio="xMinYMin meet" x="353" y="-257"/>
<text text-anchor="start" x="377" y="-246.55" font-family="Helvetica,sans-Serif" font-size="11.00">work_order_id</text>
<polygon fill="none" stroke="black" points="348,-218 348,-240 537,-240 537,-218 348,-218"/>
<image xlink:href="../../images/foreignKeys.png" width="11px" height="12px" preserveAspectRatio="xMinYMin meet" x="353" y="-235"/>
<text text-anchor="start" x="377" y="-224.55" font-family="Helvetica,sans-Serif" font-size="11.00">starship_id</text>
<polygon fill="#ffffff" stroke="none" points="348,-200 348,-218 441,-218 441,-200 348,-200"/>
<polygon fill="none" stroke="black" points="348,-200 348,-218 441,-218 441,-200 348,-200"/>
<text text-anchor="start" x="351" y="-204.55" font-family="Helvetica,sans-Serif" font-size="11.00">&lt; 2</text>
<polygon fill="#ffffff" stroke="none" points="441,-200 441,-218 489,-218 489,-200 441,-200"/>
<polygon fill="none" stroke="black" points="441,-200 441,-218 489,-218 489,-200 441,-200"/>
<text text-anchor="start" x="480" y="-204.55" font-family="Helvetica,sans-Serif" font-size="11.00"> &#160;</text>
<polygon fill="#ffffff" stroke="none" points="489,-200 489,-218 537,-218 537,-200 489,-200"/>
<polygon fill="none" stroke="black" points="489,-200 489,-218 537,-218 537,-200 489,-200"/>
<text text-anchor="start" x="528" y="-204.55" font-family="Helvetica,sans-Serif" font-size="11.00"> &#160;</text>
</a>
</g>
</g>
<!-- work_orders -->
<g id="node4" class="node">
<title>work_orders</title>
<g id="a_node4"><a xlink:href="../../tables/work_orders.html" xlink:title="work_orders" target="_top">
<polygon fill="#ffffff" stroke="none" points="170,-230 170,-402 281,-402 281,-230 170,-230"/>
<polygon fill="#f5f5f5" stroke="none" points="170,-380 170,-402 281,-402 281,-380 170,-380"/>
<polygon fill="none" stroke="black" points="170,-380 170,-402 281,-402 281,-380 170,-380"/>
<text text-anchor="start" x="175" y="-387.55" font-family="Helvetica,sans-Serif" font-weight="bold" font-size="11.00">work_orders</text>
<text text-anchor="start" x="247" y="-386.55" font-family="Helvetica,sans-Serif" font-size="11.00">[table]</text>
<polygon fill="none" stroke="black" points="170,-358 170,-380 281,-380 281,-358 170,-358"/>
<image xlink:href="../../images/primaryKeys.png" width="11px" height="12px" preserveAspectRatio="xMinYMin meet" x="175" y="-375"/>
<text text-anchor="start" x="199" y="-364.55" font-family="Helvetica,sans-Serif" font-size="11.00">id</text>
<polygon fill="none" stroke="black" points="170,-336 170,-358 281,-358 281,-336 170,-336"/>
<text text-anchor="start" x="199" y="-342.55" font-family="Helvetica,sans-Serif" font-size="11.00">title</text>
<polygon fill="none" stroke="black" points="170,-314 170,-336 281,-336 281,-314 170,-314"/>
<text text-anchor="start" x="199" y="-320.55" font-family="Helvetica,sans-Serif" font-size="11.00">description</text>
<polygon fill="none" stroke="black" points="170,-292 170,-314 281,-314 281,-292 170,-292"/>
<text text-anchor="start" x="199" y="-298.55" font-family="Helvetica,sans-Serif" font-size="11.00">metadata</text>
<polygon fill="none" stroke="black" points="170,-270 170,-292 281,-292 281,-270 170,-270"/>
<text text-anchor="start" x="199" y="-276.55" font-family="Helvetica,sans-Serif" font-size="11.00">inserted_at</text>
<polygon fill="none" stroke="black" points="170,-248 170,-270 281,-270 281,-248 170,-248"/>
<text text-anchor="start" x="199" y="-254.55" font-family="Helvetica,sans-Serif" font-size="11.00">updated_at</text>
<polygon fill="#ffffff" stroke="none" points="170,-230 170,-248 215,-248 215,-230 170,-230"/>
<polygon fill="none" stroke="black" points="170,-230 170,-248 215,-248 215,-230 170,-230"/>
<text text-anchor="start" x="173" y="-234.55" font-family="Helvetica,sans-Serif" font-size="11.00"> &#160;</text>
<polygon fill="#ffffff" stroke="none" points="215,-230 215,-248 243,-248 243,-230 215,-230"/>
<polygon fill="none" stroke="black" points="215,-230 215,-248 243,-248 243,-230 215,-230"/>
<text text-anchor="start" x="234" y="-234.55" font-family="Helvetica,sans-Serif" font-size="11.00"> &#160;</text>
<polygon fill="#ffffff" stroke="none" points="243,-230 243,-248 281,-248 281,-230 243,-230"/>
<polygon fill="none" stroke="black" points="243,-230 243,-248 281,-248 281,-230 243,-230"/>
<text text-anchor="start" x="262.25" y="-234.55" font-family="Helvetica,sans-Serif" font-size="11.00">2 &gt;</text>
</a>
</g>
</g>
<!-- work_orders_to_starships&#45;&gt;work_orders -->
<g id="edge6" class="edge">
<title>work_orders_to_starships:w&#45;&gt;work_orders:e</title>
<path fill="none" stroke="black" d="M331.19,-254.66C297.23,-274.58 335.87,-369 282.5,-369"/>
<polygon fill="black" stroke="black" points="338.39,-252.94 347.01,-254.58 342.61,-251.93 345.85,-251.16 345.85,-251.16 345.85,-251.16 342.61,-251.93 345.34,-247.58 338.39,-252.94"/>
<ellipse fill="none" stroke="black" cx="333.61" cy="-254.08" rx="3.2" ry="3.2"/>
</g>
<!-- starships -->
<g id="node6" class="node">
<title>starships</title>
<g id="a_node6"><a xlink:href="../../tables/starships.html" xlink:title="starships" target="_top">
<polygon fill="#ffffff" stroke="none" points="179.5,-37 179.5,-209 271.5,-209 271.5,-37 179.5,-37"/>
<polygon fill="#f5f5f5" stroke="none" points="179.5,-187 179.5,-209 271.5,-209 271.5,-187 179.5,-187"/>
<polygon fill="none" stroke="black" points="179.5,-187 179.5,-209 271.5,-209 271.5,-187 179.5,-187"/>
<text text-anchor="start" x="184.5" y="-194.55" font-family="Helvetica,sans-Serif" font-weight="bold" font-size="11.00">starships</text>
<text text-anchor="start" x="237.5" y="-193.55" font-family="Helvetica,sans-Serif" font-size="11.00">[table]</text>
<polygon fill="none" stroke="black" points="179.5,-165 179.5,-187 271.5,-187 271.5,-165 179.5,-165"/>
<image xlink:href="../../images/primaryKeys.png" width="11px" height="12px" preserveAspectRatio="xMinYMin meet" x="184.5" y="-182"/>
<text text-anchor="start" x="201.5" y="-171.55" font-family="Helvetica,sans-Serif" font-size="11.00">id</text>
<polygon fill="#ffffff" stroke="none" points="179.5,-143 179.5,-165 271.5,-165 271.5,-143 179.5,-143"/>
<polygon fill="none" stroke="black" points="179.5,-143 179.5,-165 271.5,-165 271.5,-143 179.5,-143"/>
<text text-anchor="start" x="201.5" y="-149.55" font-family="Helvetica,sans-Serif" font-size="11.00">name</text>
<polygon fill="none" stroke="black" points="179.5,-121 179.5,-143 271.5,-143 271.5,-121 179.5,-121"/>
<text text-anchor="start" x="201.5" y="-127.55" font-family="Helvetica,sans-Serif" font-size="11.00">metadata</text>
<polygon fill="none" stroke="black" points="179.5,-99 179.5,-121 271.5,-121 271.5,-99 179.5,-99"/>
<text text-anchor="start" x="201.5" y="-105.55" font-family="Helvetica,sans-Serif" font-size="11.00">inserted_at</text>
<polygon fill="none" stroke="black" points="179.5,-77 179.5,-99 271.5,-99 271.5,-77 179.5,-77"/>
<text text-anchor="start" x="201.5" y="-83.55" font-family="Helvetica,sans-Serif" font-size="11.00">updated_at</text>
<polygon fill="none" stroke="black" points="179.5,-55 179.5,-77 271.5,-77 271.5,-55 179.5,-55"/>
<image xlink:href="../../images/foreignKeys.png" width="11px" height="12px" preserveAspectRatio="xMinYMin meet" x="184.5" y="-72"/>
<text text-anchor="start" x="201.5" y="-61.55" font-family="Helvetica,sans-Serif" font-size="11.00">shipyard_id</text>
<polygon fill="#ffffff" stroke="none" points="179.5,-37 179.5,-55 219.5,-55 219.5,-37 179.5,-37"/>
<polygon fill="none" stroke="black" points="179.5,-37 179.5,-55 219.5,-55 219.5,-37 179.5,-37"/>
<text text-anchor="start" x="182.5" y="-41.55" font-family="Helvetica,sans-Serif" font-size="11.00">&lt; 1</text>
<polygon fill="#ffffff" stroke="none" points="219.5,-37 219.5,-55 240.5,-55 240.5,-37 219.5,-37"/>
<polygon fill="none" stroke="black" points="219.5,-37 219.5,-55 240.5,-55 240.5,-37 219.5,-37"/>
<text text-anchor="start" x="231.5" y="-41.55" font-family="Helvetica,sans-Serif" font-size="11.00"> &#160;</text>
<polygon fill="#ffffff" stroke="none" points="240.5,-37 240.5,-55 271.5,-55 271.5,-37 240.5,-37"/>
<polygon fill="none" stroke="black" points="240.5,-37 240.5,-55 271.5,-55 271.5,-37 240.5,-37"/>
<text text-anchor="start" x="252.75" y="-41.55" font-family="Helvetica,sans-Serif" font-size="11.00">1 &gt;</text>
</a>
</g>
</g>
<!-- work_orders_to_starships&#45;&gt;starships -->
<g id="edge5" class="edge">
<title>work_orders_to_starships:w&#45;&gt;starships:e</title>
<path fill="none" stroke="black" d="M331.31,-225.84C307.05,-214.43 306.95,-176 272.5,-176"/>
<polygon fill="black" stroke="black" points="338.34,-227.3 345.44,-232.46 342.58,-228.19 345.85,-228.86 345.85,-228.86 345.85,-228.86 342.58,-228.19 346.9,-225.41 338.34,-227.3"/>
<ellipse fill="none" stroke="black" cx="333.52" cy="-226.3" rx="3.2" ry="3.2"/>
</g>
<!-- employees -->
<g id="node2" class="node">
<title>employees</title>
<g id="a_node2"><a xlink:href="../../tables/employees.html" xlink:title="employees" target="_top">
<polygon fill="#ffffff" stroke="none" points="152,-423 152,-595 299,-595 299,-423 152,-423"/>
<polygon fill="#f5f5f5" stroke="none" points="152,-573 152,-595 299,-595 299,-573 152,-573"/>
<polygon fill="none" stroke="black" points="152,-573 152,-595 299,-595 299,-573 152,-573"/>
<text text-anchor="start" x="157" y="-580.55" font-family="Helvetica,sans-Serif" font-weight="bold" font-size="11.00">employees</text>
<text text-anchor="start" x="264.75" y="-579.55" font-family="Helvetica,sans-Serif" font-size="11.00">[table]</text>
<polygon fill="none" stroke="black" points="152,-551 152,-573 299,-573 299,-551 152,-551"/>
<image xlink:href="../../images/primaryKeys.png" width="11px" height="12px" preserveAspectRatio="xMinYMin meet" x="157" y="-568"/>
<text text-anchor="start" x="172" y="-557.55" font-family="Helvetica,sans-Serif" font-size="11.00">id</text>
<polygon fill="#ffffff" stroke="none" points="152,-529 152,-551 299,-551 299,-529 152,-529"/>
<polygon fill="none" stroke="black" points="152,-529 152,-551 299,-551 299,-529 152,-529"/>
<text text-anchor="start" x="172" y="-535.55" font-family="Helvetica,sans-Serif" font-size="11.00">name</text>
<polygon fill="none" stroke="black" points="152,-507 152,-529 299,-529 299,-507 152,-507"/>
<text text-anchor="start" x="172" y="-513.55" font-family="Helvetica,sans-Serif" font-size="11.00">metadata</text>
<polygon fill="none" stroke="black" points="152,-485 152,-507 299,-507 299,-485 152,-485"/>
<text text-anchor="start" x="172" y="-491.55" font-family="Helvetica,sans-Serif" font-size="11.00">inserted_at</text>
<polygon fill="none" stroke="black" points="152,-463 152,-485 299,-485 299,-463 152,-463"/>
<text text-anchor="start" x="172" y="-469.55" font-family="Helvetica,sans-Serif" font-size="11.00">updated_at</text>
<polygon fill="none" stroke="black" points="152,-441 152,-463 299,-463 299,-441 152,-441"/>
<image xlink:href="../../images/foreignKeys.png" width="11px" height="12px" preserveAspectRatio="xMinYMin meet" x="157" y="-458"/>
<text text-anchor="start" x="172" y="-447.55" font-family="Helvetica,sans-Serif" font-size="11.00">assigned_shipyard_id</text>
<polygon fill="#ffffff" stroke="none" points="152,-423 152,-441 219,-441 219,-423 152,-423"/>
<polygon fill="none" stroke="black" points="152,-423 152,-441 219,-441 219,-423 152,-423"/>
<text text-anchor="start" x="155" y="-427.55" font-family="Helvetica,sans-Serif" font-size="11.00">&lt; 1</text>
<polygon fill="#ffffff" stroke="none" points="219,-423 219,-441 254,-441 254,-423 219,-423"/>
<polygon fill="none" stroke="black" points="219,-423 219,-441 254,-441 254,-423 219,-423"/>
<text text-anchor="start" x="245" y="-427.55" font-family="Helvetica,sans-Serif" font-size="11.00"> &#160;</text>
<polygon fill="#ffffff" stroke="none" points="254,-423 254,-441 299,-441 299,-423 254,-423"/>
<polygon fill="none" stroke="black" points="254,-423 254,-441 299,-441 299,-423 254,-423"/>
<text text-anchor="start" x="280.25" y="-427.55" font-family="Helvetica,sans-Serif" font-size="11.00">1 &gt;</text>
</a>
</g>
</g>
<!-- shipyards -->
<g id="node3" class="node">
<title>shipyards</title>
<g id="a_node3"><a xlink:href="../../tables/shipyards.html" xlink:title="shipyards" target="_top">
<polygon fill="#ffffff" stroke="none" points="8,-142 8,-292 103,-292 103,-142 8,-142"/>
<polygon fill="#f5f5f5" stroke="none" points="8,-270 8,-292 103,-292 103,-270 8,-270"/>
<polygon fill="none" stroke="black" points="8,-270 8,-292 103,-292 103,-270 8,-270"/>
<text text-anchor="start" x="13" y="-277.55" font-family="Helvetica,sans-Serif" font-weight="bold" font-size="11.00">shipyards</text>
<text text-anchor="start" x="69" y="-276.55" font-family="Helvetica,sans-Serif" font-size="11.00">[table]</text>
<polygon fill="none" stroke="black" points="8,-248 8,-270 103,-270 103,-248 8,-248"/>
<image xlink:href="../../images/primaryKeys.png" width="11px" height="12px" preserveAspectRatio="xMinYMin meet" x="13" y="-265"/>
<text text-anchor="start" x="33" y="-254.55" font-family="Helvetica,sans-Serif" font-size="11.00">id</text>
<polygon fill="#ffffff" stroke="none" points="8,-226 8,-248 103,-248 103,-226 8,-226"/>
<polygon fill="none" stroke="black" points="8,-226 8,-248 103,-248 103,-226 8,-226"/>
<text text-anchor="start" x="33" y="-232.55" font-family="Helvetica,sans-Serif" font-size="11.00">name</text>
<polygon fill="none" stroke="black" points="8,-204 8,-226 103,-226 103,-204 8,-204"/>
<text text-anchor="start" x="33" y="-210.55" font-family="Helvetica,sans-Serif" font-size="11.00">metadata</text>
<polygon fill="none" stroke="black" points="8,-182 8,-204 103,-204 103,-182 8,-182"/>
<text text-anchor="start" x="33" y="-188.55" font-family="Helvetica,sans-Serif" font-size="11.00">inserted_at</text>
<polygon fill="none" stroke="black" points="8,-160 8,-182 103,-182 103,-160 8,-160"/>
<text text-anchor="start" x="33" y="-166.55" font-family="Helvetica,sans-Serif" font-size="11.00">updated_at</text>
<polygon fill="#ffffff" stroke="none" points="8,-142 8,-160 45,-160 45,-142 8,-142"/>
<polygon fill="none" stroke="black" points="8,-142 8,-160 45,-160 45,-142 8,-142"/>
<text text-anchor="start" x="11" y="-146.55" font-family="Helvetica,sans-Serif" font-size="11.00"> &#160;</text>
<polygon fill="#ffffff" stroke="none" points="45,-142 45,-160 69,-160 69,-142 45,-142"/>
<polygon fill="none" stroke="black" points="45,-142 45,-160 69,-160 69,-142 45,-142"/>
<text text-anchor="start" x="60" y="-146.55" font-family="Helvetica,sans-Serif" font-size="11.00"> &#160;</text>
<polygon fill="#ffffff" stroke="none" points="69,-142 69,-160 103,-160 103,-142 69,-142"/>
<polygon fill="none" stroke="black" points="69,-142 69,-160 103,-160 103,-142 69,-142"/>
<text text-anchor="start" x="84.25" y="-146.55" font-family="Helvetica,sans-Serif" font-size="11.00">2 &gt;</text>
</a>
</g>
</g>
<!-- employees&#45;&gt;shipyards -->
<g id="edge1" class="edge">
<title>employees:w&#45;&gt;shipyards:e</title>
<path fill="none" stroke="black" d="M134.99,-449.27C79.57,-425.81 186.48,-259 104.5,-259"/>
<polygon fill="black" stroke="black" points="142.29,-450.56 149.55,-455.49 146.56,-451.31 149.84,-451.88 149.84,-451.88 149.84,-451.88 146.56,-451.31 150.79,-448.4 142.29,-450.56"/>
<ellipse fill="none" stroke="black" cx="137.45" cy="-449.7" rx="3.2" ry="3.2"/>
</g>
<!-- work_order_assignments -->
<g id="node5" class="node">
<title>work_order_assignments</title>
<g id="a_node5"><a xlink:href="../../tables/work_order_assignments.html" xlink:title="work_order_assignments" target="_top">
<polygon fill="#ffffff" stroke="none" points="350.5,-381 350.5,-553 534.5,-553 534.5,-381 350.5,-381"/>
<polygon fill="#f5f5f5" stroke="none" points="350.5,-531 350.5,-553 534.5,-553 534.5,-531 350.5,-531"/>
<polygon fill="none" stroke="black" points="350.5,-531 350.5,-553 534.5,-553 534.5,-531 350.5,-531"/>
<text text-anchor="start" x="355.5" y="-538.55" font-family="Helvetica,sans-Serif" font-weight="bold" font-size="11.00">work_order_assignments</text>
<text text-anchor="start" x="500.5" y="-537.55" font-family="Helvetica,sans-Serif" font-size="11.00">[table]</text>
<polygon fill="none" stroke="black" points="350.5,-509 350.5,-531 534.5,-531 534.5,-509 350.5,-509"/>
<image xlink:href="../../images/primaryKeys.png" width="11px" height="12px" preserveAspectRatio="xMinYMin meet" x="355.5" y="-526"/>
<text text-anchor="start" x="379.5" y="-515.55" font-family="Helvetica,sans-Serif" font-size="11.00">id</text>
<polygon fill="none" stroke="black" points="350.5,-487 350.5,-509 534.5,-509 534.5,-487 350.5,-487"/>
<text text-anchor="start" x="379.5" y="-493.55" font-family="Helvetica,sans-Serif" font-size="11.00">metadata</text>
<polygon fill="none" stroke="black" points="350.5,-465 350.5,-487 534.5,-487 534.5,-465 350.5,-465"/>
<image xlink:href="../../images/foreignKeys.png" width="11px" height="12px" preserveAspectRatio="xMinYMin meet" x="355.5" y="-482"/>
<text text-anchor="start" x="379.5" y="-471.55" font-family="Helvetica,sans-Serif" font-size="11.00">assigned_employee_id</text>
<polygon fill="none" stroke="black" points="350.5,-443 350.5,-465 534.5,-465 534.5,-443 350.5,-443"/>
<image xlink:href="../../images/foreignKeys.png" width="11px" height="12px" preserveAspectRatio="xMinYMin meet" x="355.5" y="-460"/>
<text text-anchor="start" x="379.5" y="-449.55" font-family="Helvetica,sans-Serif" font-size="11.00">work_order_id</text>
<polygon fill="none" stroke="black" points="350.5,-421 350.5,-443 534.5,-443 534.5,-421 350.5,-421"/>
<text text-anchor="start" x="379.5" y="-427.55" font-family="Helvetica,sans-Serif" font-size="11.00">inserted_at</text>
<polygon fill="none" stroke="black" points="350.5,-399 350.5,-421 534.5,-421 534.5,-399 350.5,-399"/>
<text text-anchor="start" x="379.5" y="-405.55" font-family="Helvetica,sans-Serif" font-size="11.00">updated_at</text>
<polygon fill="#ffffff" stroke="none" points="350.5,-381 350.5,-399 440.5,-399 440.5,-381 350.5,-381"/>
<polygon fill="none" stroke="black" points="350.5,-381 350.5,-399 440.5,-399 440.5,-381 350.5,-381"/>
<text text-anchor="start" x="353.5" y="-385.55" font-family="Helvetica,sans-Serif" font-size="11.00">&lt; 2</text>
<polygon fill="#ffffff" stroke="none" points="440.5,-381 440.5,-399 487.5,-399 487.5,-381 440.5,-381"/>
<polygon fill="none" stroke="black" points="440.5,-381 440.5,-399 487.5,-399 487.5,-381 440.5,-381"/>
<text text-anchor="start" x="478.5" y="-385.55" font-family="Helvetica,sans-Serif" font-size="11.00"> &#160;</text>
<polygon fill="#ffffff" stroke="none" points="487.5,-381 487.5,-399 534.5,-399 534.5,-381 487.5,-381"/>
<polygon fill="none" stroke="black" points="487.5,-381 487.5,-399 534.5,-399 534.5,-381 487.5,-381"/>
<text text-anchor="start" x="525.5" y="-385.55" font-family="Helvetica,sans-Serif" font-size="11.00"> &#160;</text>
</a>
</g>
</g>
<!-- work_order_assignments&#45;&gt;employees -->
<g id="edge3" class="edge">
<title>work_order_assignments:w&#45;&gt;employees:e</title>
<path fill="none" stroke="black" d="M334.85,-481.12C315.25,-499.64 337.96,-562 300.5,-562"/>
<polygon fill="black" stroke="black" points="341.63,-478.75 350.37,-479.51 345.72,-477.32 348.87,-476.22 348.87,-476.22 348.87,-476.22 345.72,-477.32 348,-472.71 341.63,-478.75"/>
<ellipse fill="none" stroke="black" cx="336.99" cy="-480.37" rx="3.2" ry="3.2"/>
</g>
<!-- work_order_assignments&#45;&gt;work_orders -->
<g id="edge4" class="edge">
<title>work_order_assignments:w&#45;&gt;work_orders:e</title>
<path fill="none" stroke="black" d="M334.42,-450.13C307.64,-433.5 324.4,-369 282.5,-369"/>
<polygon fill="black" stroke="black" points="341.43,-451.93 348.28,-457.4 345.63,-453 348.85,-453.83 348.85,-453.83 348.85,-453.83 345.63,-453 350.07,-450.43 341.43,-451.93"/>
<ellipse fill="none" stroke="black" cx="336.66" cy="-450.7" rx="3.2" ry="3.2"/>
</g>
<!-- starships&#45;&gt;shipyards -->
<g id="edge2" class="edge">
<title>starships:w&#45;&gt;shipyards:e</title>
<path fill="none" stroke="black" d="M163.14,-68.3C99.94,-90.08 190.45,-259 104.5,-259"/>
<polygon fill="black" stroke="black" points="170.26,-67.24 178.7,-69.61 174.54,-66.59 177.84,-66.1 177.84,-66.1 177.84,-66.1 174.54,-66.59 177.64,-62.49 170.26,-67.24"/>
<ellipse fill="none" stroke="black" cx="165.39" cy="-67.96" rx="3.2" ry="3.2"/>
</g>
</g>
</svg>
